<svg width="83" height="53" viewBox="0 0 83 53" fill="none" xmlns="http://www.w3.org/2000/svg">
<path d="M53.0225 53C30.9113 21.0704 58.1617 0 58.1617 0C58.1617 0 24.6816 9.5826 0 52.9982L53.0225 53Z" fill="white"/>
<path d="M70.2033 0C70.2033 0 64.7507 1.56169 56.6268 6.27508C50.1244 14.7741 42.4997 31.402 57.4535 53H65.0658C42.9529 21.0704 70.2033 0 70.2033 0Z" fill="white"/>
<path d="M82.245 0C82.245 0 76.7924 1.56169 68.6685 6.27508C62.1662 14.7741 54.5414 31.402 69.4952 53H77.1076C54.9946 21.0704 82.245 0 82.245 0Z" fill="white"/>
</svg>
